<svg width="40" height="40" viewBox="0 0 40 40" fill="none" xmlns="http://www.w3.org/2000/svg">
<path d="M30.8333 34.9999C34.055 34.9999 36.6667 32.3882 36.6667 29.1666C36.6667 25.9449 34.055 23.3333 30.8333 23.3333C27.6117 23.3333 25 25.9449 25 29.1666C25 32.3882 27.6117 34.9999 30.8333 34.9999Z" stroke="#003399" stroke-width="3.33333" stroke-linecap="round" stroke-linejoin="round"/>
<path d="M9.16667 34.9999C12.3883 34.9999 15 32.3882 15 29.1666C15 25.9449 12.3883 23.3333 9.16667 23.3333C5.94501 23.3333 3.33333 25.9449 3.33333 29.1666C3.33333 32.3882 5.94501 34.9999 9.16667 34.9999Z" stroke="#003399" stroke-width="3.33333" stroke-linecap="round" stroke-linejoin="round"/>
<path d="M25 10.0001C25.9205 10.0001 26.6667 9.25389 26.6667 8.33341C26.6667 7.41294 25.9205 6.66675 25 6.66675C24.0795 6.66675 23.3333 7.41294 23.3333 8.33341C23.3333 9.25389 24.0795 10.0001 25 10.0001Z" stroke="#003399" stroke-width="3.33333" stroke-linecap="round" stroke-linejoin="round"/>
<path d="M20 29.1666V23.3333L15 18.3333L21.6667 13.3333L25 18.3333H28.3333" stroke="#003399" stroke-width="3.33333" stroke-linecap="round" stroke-linejoin="round"/>
</svg>
