<svg width="16" height="16" viewBox="0 0 16 16" fill="none" xmlns="http://www.w3.org/2000/svg">
<g clip-path="url(#clip0_23_273)">
<path d="M2.66669 13V3.00004C2.66669 2.55801 2.84228 2.13409 3.15484 1.82153C3.4674 1.50897 3.89133 1.33337 4.33335 1.33337H12.6667C12.8435 1.33337 13.0131 1.40361 13.1381 1.52864C13.2631 1.65366 13.3334 1.82323 13.3334 2.00004V14C13.3334 14.1769 13.2631 14.3464 13.1381 14.4714C13.0131 14.5965 12.8435 14.6667 12.6667 14.6667H4.33335C3.89133 14.6667 3.4674 14.4911 3.15484 14.1786C2.84228 13.866 2.66669 13.4421 2.66669 13ZM2.66669 13C2.66669 12.558 2.84228 12.1341 3.15484 11.8215C3.4674 11.509 3.89133 11.3334 4.33335 11.3334H13.3334" stroke="#003399" stroke-width="1.33333" stroke-linecap="round" stroke-linejoin="round"/>
</g>
<defs>
<clipPath id="clip0_23_273">
<rect width="16" height="16" fill="white"/>
</clipPath>
</defs>
</svg>
